<svg width="182" height="109" viewBox="0 0 182 109" fill="none" xmlns="http://www.w3.org/2000/svg">
<path d="M36.5338 77.3003C35.9975 77.3011 35.4833 77.5727 35.1041 78.0556C34.7249 78.5385 34.5116 79.1932 34.511 79.8761V85.9021C34.5116 86.585 34.7249 87.2397 35.1041 87.7226C35.4833 88.2054 35.9975 88.4771 36.5338 88.4778H39.0996C39.6359 88.4771 40.15 88.2054 40.5293 87.7226C40.9085 87.2397 41.1218 86.585 41.1224 85.9021V79.8761C41.1218 79.1932 40.9085 78.5385 40.5293 78.0556C40.15 77.5727 39.6359 77.3011 39.0996 77.3003H36.5338Z" fill="#3F3D56"/>
<path d="M83.9627 88.6783H81.3969C80.8189 88.6774 80.2647 88.3847 79.856 87.8642C79.4472 87.3437 79.2173 86.6381 79.2167 85.9021V79.8761C79.2173 79.14 79.4472 78.4344 79.856 77.9139C80.2647 77.3935 80.8189 77.1007 81.3969 77.0999H83.9627C84.5407 77.1007 85.0949 77.3935 85.5036 77.9139C85.9123 78.4344 86.1422 79.14 86.1429 79.8761V85.9021C86.1422 86.6381 85.9123 87.3437 85.5036 87.8642C85.0949 88.3847 84.5407 88.6774 83.9627 88.6783Z" fill="#3F3D56"/>
<path d="M82.2602 83.8534H38.0788C36.0681 83.8534 34.4323 82.3441 34.4323 80.4888V69.6709L36.6252 66.7302H84.1404L85.9068 69.6771V80.4888C85.9068 82.3441 84.271 83.8534 82.2602 83.8534Z" fill="#00B0FF"/>
<path d="M83.9342 72.142H36.8771L36.3989 62.8052L36.7032 61.8498L38.4721 56.3073H82.0208L84.4125 62.6012L83.9342 72.142Z" fill="#00B0FF"/>
<path d="M84.3327 62.6212L83.9816 69.6365H73.6284V64.4251L84.0382 61.8475L84.3327 62.6212Z" fill="white"/>
<path d="M47.0254 64.4251V69.6365H36.828L36.4785 62.8216L36.7761 61.8876L47.0254 64.4251Z" fill="white"/>
<path d="M81.7583 57.9108H38.734L43.3229 38.4339C43.51 37.6295 43.8954 36.9231 44.4222 36.4191C44.9489 35.9151 45.589 35.6403 46.2479 35.6352L74.7413 35.2896C75.4298 35.2811 76.1007 35.5662 76.6472 36.0995C77.1936 36.6328 77.5842 37.3837 77.7567 38.2324L81.7583 57.9108Z" fill="#00B0FF"/>
<path d="M78.4462 56.0691L42.0391 55.5194C41.9931 55.5187 41.9478 55.5043 41.907 55.4773C41.8661 55.4503 41.8308 55.4114 41.8039 55.3638C41.777 55.3163 41.7592 55.2614 41.752 55.2035C41.7448 55.1456 41.7484 55.0864 41.7625 55.0305L45.2526 41.1648C45.2717 41.0893 45.309 41.0233 45.3594 40.9766C45.4097 40.9298 45.4705 40.9046 45.5328 40.9046H74.8157C74.878 40.9046 74.9387 40.9298 74.9891 40.9765C75.0394 41.0233 75.0768 41.0891 75.0959 41.1647L78.7298 55.5801C78.744 55.6366 78.7475 55.6967 78.74 55.7552C78.7324 55.8138 78.714 55.8693 78.6863 55.9171C78.6586 55.9648 78.6224 56.0035 78.5807 56.03C78.5389 56.0564 78.4928 56.0698 78.4462 56.0691Z" fill="white"/>
<path d="M65.1527 37.6664H55.3397C55.257 37.6664 55.182 37.5628 55.1439 37.3958C55.106 37.2249 55.1115 37.043 55.1596 36.8763L55.9688 34.2706C56.01 34.1378 56.0774 34.0585 56.1489 34.0585H64.3435C64.4151 34.0585 64.4824 34.1378 64.5236 34.2706L65.3329 36.8763C65.3809 37.043 65.3864 37.2249 65.3485 37.3958C65.3104 37.5628 65.2354 37.6664 65.1527 37.6664Z" fill="#00B0FF"/>
<path d="M38.7611 57.5099H32.3071V55.7036C32.3076 55.1197 32.49 54.5599 32.8143 54.1469C33.1386 53.734 33.5783 53.5018 34.0368 53.5011H38.7611V57.5099Z" fill="#00B0FF"/>
<path d="M88.1894 57.5099H81.7354V53.5011H86.4596C86.9182 53.5018 87.3579 53.734 87.6822 54.1469C88.0064 54.5599 88.1888 55.1197 88.1894 55.7036V57.5099Z" fill="#00B0FF"/>
<g clip-path="url(#clip0_56_256)">
<path d="M151.945 100H71.6111V99.7186H152L151.945 100Z" fill="#3F3D56"/>
<path d="M68.9819 37.193H53.4572C53.213 37.1928 52.979 37.1033 52.8063 36.9441C52.6336 36.785 52.5365 36.5692 52.5363 36.3441V22.0339C52.5365 21.8088 52.6336 21.593 52.8063 21.4339C52.979 21.2747 53.213 21.1852 53.4572 21.1849H68.9819C69.226 21.1852 69.4601 21.2747 69.6328 21.4339C69.8054 21.593 69.9025 21.8088 69.9028 22.0339V36.3441C69.9025 36.5692 69.8054 36.785 69.6328 36.9441C69.4601 37.1033 69.226 37.1928 68.9819 37.193ZM53.4572 21.4275C53.2828 21.4277 53.1156 21.4916 52.9923 21.6053C52.869 21.719 52.7996 21.8731 52.7994 22.0339V36.3441C52.7996 36.5049 52.869 36.659 52.9923 36.7727C53.1156 36.8864 53.2828 36.9503 53.4572 36.9505H68.9819C69.1563 36.9503 69.3235 36.8864 69.4468 36.7727C69.5701 36.659 69.6395 36.5049 69.6397 36.3441V22.0339C69.6395 21.8731 69.5701 21.719 69.4468 21.6053C69.3235 21.4916 69.1563 21.4277 68.9819 21.4275H53.4572Z" fill="#E6E6E6"/>
<path d="M54.6413 22.519C54.4669 22.5191 54.2997 22.5831 54.1764 22.6968C54.0531 22.8104 53.9837 22.9646 53.9835 23.1253V35.2527C53.9837 35.4134 54.0531 35.5676 54.1764 35.6812C54.2997 35.7949 54.4669 35.8589 54.6413 35.859H67.7978C67.9722 35.8589 68.1394 35.7949 68.2628 35.6812C68.3861 35.5676 68.4555 35.4134 68.4557 35.2527V23.1253C68.4555 22.9646 68.3861 22.8104 68.2628 22.6968C68.1394 22.5831 67.9722 22.5191 67.7978 22.519L54.6413 22.519Z" fill="#E6E6E6"/>
<path opacity="0.8" d="M54.9702 43.8631C56.2055 43.8631 57.2069 42.94 57.2069 41.8014C57.2069 40.6628 56.2055 39.7398 54.9702 39.7398C53.735 39.7398 52.7336 40.6628 52.7336 41.8014C52.7336 42.94 53.735 43.8631 54.9702 43.8631Z" fill="#E6E6E6"/>
<path opacity="0.4" d="M67.6005 43.8631C68.8357 43.8631 69.8371 42.94 69.8371 41.8014C69.8371 40.6628 68.8357 39.7398 67.6005 39.7398C66.3653 39.7398 65.3639 40.6628 65.3639 41.8014C65.3639 42.94 66.3653 43.8631 67.6005 43.8631Z" fill="#E6E6E6"/>
<path opacity="0.6" d="M61.2853 43.8631C62.5205 43.8631 63.5219 42.94 63.5219 41.8014C63.5219 40.6628 62.5205 39.7398 61.2853 39.7398C60.0501 39.7398 59.0487 40.6628 59.0487 41.8014C59.0487 42.94 60.0501 43.8631 61.2853 43.8631Z" fill="#E6E6E6"/>
<path d="M111.795 55.9067C111.723 55.8409 111.628 55.8 111.527 55.7908C111.426 55.7817 111.325 55.8048 111.24 55.8563L107.845 57.8944C107.789 57.9279 107.742 57.9724 107.708 58.0248C107.673 58.0771 107.651 58.136 107.645 58.197C107.638 58.258 107.646 58.3197 107.668 58.3775C107.69 58.4353 107.727 58.4877 107.774 58.531L116.407 66.4543C116.449 66.4928 116.499 66.5233 116.553 66.5439C116.608 66.5644 116.667 66.5748 116.726 66.5743C116.785 66.5737 116.844 66.5623 116.898 66.5408C116.953 66.5192 117.002 66.4879 117.043 66.4487L119.872 63.7495C119.954 63.6712 119.999 63.5663 119.997 63.4575C119.995 63.3488 119.947 63.2452 119.863 63.169L111.795 55.9067Z" fill="#3F3D56"/>
<path d="M108.514 58.1124L108.865 57.9059C108.828 57.9667 108.815 58.0372 108.827 58.106C108.839 58.1749 108.876 58.2379 108.931 58.2849C108.987 58.3318 109.059 58.36 109.134 58.3647C109.21 58.3695 109.285 58.3506 109.347 58.311L111.62 56.8703C111.672 56.8376 111.713 56.7922 111.738 56.7392C111.763 56.6863 111.771 56.6279 111.762 56.5707C111.753 56.5136 111.726 56.46 111.686 56.416C111.645 56.372 111.592 56.3395 111.532 56.3221L111.713 56.2157C111.736 56.2019 111.764 56.1959 111.792 56.1988C111.82 56.2017 111.845 56.2132 111.865 56.2314L119.513 63.1594C119.524 63.17 119.533 63.1827 119.539 63.1965C119.545 63.2104 119.548 63.2253 119.548 63.2403C119.548 63.2552 119.544 63.27 119.538 63.2837C119.531 63.2974 119.522 63.3097 119.51 63.32L116.732 65.8147C116.709 65.8347 116.679 65.8456 116.647 65.8452C116.615 65.8448 116.585 65.8331 116.563 65.8125L108.493 58.2866C108.48 58.2747 108.471 58.2603 108.464 58.2444C108.458 58.2286 108.456 58.2116 108.458 58.1949C108.46 58.1782 108.466 58.1621 108.476 58.1478C108.485 58.1335 108.498 58.1214 108.514 58.1124Z" fill="white"/>
<path d="M117.341 61.6297L114.994 63.6687L109.414 58.5864L112.246 56.8873L117.341 61.6297Z" fill="#00B0FF"/>
<path d="M109.631 59.8408C109.646 59.8267 109.655 59.8077 109.655 59.7878C109.655 59.768 109.646 59.749 109.631 59.7349L109.143 59.2851C109.127 59.2715 109.107 59.2639 109.086 59.2639C109.064 59.2639 109.044 59.2715 109.028 59.2851C109.013 59.2991 109.004 59.3182 109.004 59.338C109.004 59.3578 109.013 59.3769 109.028 59.3909L109.516 59.8408C109.532 59.8544 109.552 59.862 109.574 59.862C109.595 59.862 109.616 59.8544 109.631 59.8408Z" fill="#E6E6E6"/>
<path d="M110.453 60.4927L109.965 60.0429C109.95 60.0288 109.929 60.0209 109.908 60.0209C109.886 60.0209 109.865 60.0288 109.85 60.0429C109.835 60.0569 109.826 60.0759 109.826 60.0958C109.826 60.1156 109.835 60.1347 109.85 60.1487L110.338 60.5985C110.346 60.6055 110.355 60.611 110.365 60.6148C110.374 60.6185 110.385 60.6205 110.396 60.6205C110.406 60.6205 110.417 60.6185 110.427 60.6148C110.437 60.611 110.446 60.6055 110.453 60.5985C110.461 60.5916 110.467 60.5833 110.471 60.5743C110.475 60.5652 110.477 60.5555 110.477 60.5456C110.477 60.5358 110.475 60.5261 110.471 60.517C110.467 60.5079 110.461 60.4996 110.453 60.4927Z" fill="#E6E6E6"/>
<path d="M117.287 63.8851C117.589 63.8851 117.835 63.6589 117.835 63.3799C117.835 63.1009 117.589 62.8747 117.287 62.8747C116.984 62.8747 116.739 63.1009 116.739 63.3799C116.739 63.6589 116.984 63.8851 117.287 63.8851Z" fill="#00B0FF"/>
<path d="M133.171 64.4149L132.749 66.3131C132.688 66.5856 132.707 66.8681 132.804 67.1316C132.9 67.3952 133.071 67.6304 133.298 67.8132C133.526 67.996 133.802 68.1198 134.098 68.172C134.395 68.2243 134.701 68.203 134.986 68.1104C135.398 67.9763 135.738 67.7015 135.937 67.3428C136.135 66.984 136.177 66.5686 136.053 66.1824L135.484 64.4149L140.625 50.5537H136.256L133.171 64.4149Z" fill="#FFB8B8"/>
<path d="M128.544 36.811C130.745 36.811 132.528 35.1667 132.528 33.1384C132.528 31.1101 130.745 29.4658 128.544 29.4658C126.344 29.4658 124.56 31.1101 124.56 33.1384C124.56 35.1667 126.344 36.811 128.544 36.811Z" fill="#FFB8B8"/>
<path d="M127.902 39.6543L133.171 39.062C131.962 37.6648 131.505 36.206 131.886 34.6785L127.13 35.1524L127.902 39.6543Z" fill="#FFB8B8"/>
<path d="M121.347 60.1499L133.814 57.5435C136.478 55.6332 138.209 51.8439 139.547 47.2619C140.521 43.9227 138.77 40.3677 135.329 38.9908C135.247 38.9579 135.164 38.9262 135.08 38.8958L132.271 37.8773L127.644 38.2327L125.994 38.6477C125.644 38.7357 125.329 38.9156 125.088 39.1655C124.846 39.4154 124.689 39.7245 124.635 40.0553C122.416 47.5618 120.953 54.524 121.347 60.1499Z" fill="#00B0FF"/>
<path d="M135.613 52.8047H141.14L139.34 42.8531L135.613 43.2085V52.8047Z" fill="#00B0FF"/>
<path d="M116.977 95.9283H120.319L127.323 73.241L130.026 95.9283H133.942L135.485 59.5575C134.896 56.767 134.909 53.4413 135.228 49.8429C137.984 48.0643 136.974 43.8423 137.279 39.6004C137.282 39.5592 137.268 39.5185 137.239 39.4866L135.463 38.6357C135.439 38.6102 135.407 38.5923 135.372 38.5846C135.336 38.5769 135.299 38.5798 135.265 38.5928C135.231 38.6058 135.203 38.6282 135.184 38.657C135.165 38.6858 135.156 38.7194 135.159 38.753C135.114 41.7189 135.981 45.2461 134.585 47.5919C133.068 42.8118 131.091 38.7983 127.242 37.9022C127.169 37.8856 127.093 37.8869 127.021 37.9062L126.304 38.0949C126.224 38.1161 126.153 38.1581 126.099 38.2159C126.045 38.2738 126.011 38.3448 126 38.4205C125.989 38.4961 126.002 38.5731 126.038 38.6419C126.074 38.7107 126.131 38.7683 126.201 38.8078C129.723 40.8131 131.999 44.1706 132.143 49.8429C129.403 53.417 126.735 55.5326 121.932 58.1346C121.69 58.2661 121.485 58.4482 121.334 58.6661C121.182 58.8841 121.089 59.1318 121.06 59.3893L116.977 95.9283Z" fill="#2F2E41"/>
<path d="M129.061 36.4749L131.886 35.9817L133.567 33.3349C133.974 32.6927 134.151 31.9478 134.071 31.2073C133.99 30.4668 133.657 29.7688 133.12 29.2137C132.701 28.7811 132.172 28.4507 131.581 28.2518C130.99 28.053 130.355 27.9918 129.732 28.0738L126.071 28.556C125.755 28.5976 125.451 28.6963 125.177 28.8466C124.903 28.9968 124.664 29.1956 124.473 29.4314C124.283 29.6672 124.145 29.9354 124.067 30.2206C123.99 30.5058 123.974 30.8023 124.021 31.093L126.488 31.4798L129.061 36.4749Z" fill="#2F2E41"/>
<path d="M113.065 99.8971H118.95C119.228 99.8971 119.503 99.842 119.756 99.7354C120.008 99.6289 120.233 99.4735 120.415 99.2797C120.597 99.0859 120.731 98.8584 120.809 98.6125C120.887 98.3666 120.907 98.1081 120.866 97.8546L120.497 95.5193L117.826 95.3369L112.517 97.6258C112.275 97.73 112.074 97.9005 111.942 98.114C111.81 98.3275 111.752 98.5735 111.777 98.8183C111.808 99.1135 111.957 99.3876 112.195 99.5871C112.433 99.7866 112.743 99.8971 113.065 99.8971Z" fill="#2F2E41"/>
<path d="M126.431 99.8971H132.317C132.595 99.8971 132.87 99.842 133.122 99.7354C133.375 99.6289 133.6 99.4735 133.782 99.2797C133.964 99.0859 134.098 98.8584 134.176 98.6125C134.254 98.3666 134.273 98.1081 134.233 97.8546L133.864 95.5193L131.192 95.3369L125.883 97.6258C125.642 97.73 125.441 97.9005 125.309 98.114C125.176 98.3275 125.119 98.5735 125.144 98.8183C125.175 99.1135 125.323 99.3876 125.561 99.5871C125.799 99.7866 126.11 99.8971 126.431 99.8971Z" fill="#2F2E41"/>
<path d="M115.245 60.0549L112.698 60.8708C112.393 60.9686 112.122 61.1404 111.913 61.368C111.705 61.5957 111.567 61.8709 111.513 62.1648C111.46 62.4586 111.494 62.7603 111.61 63.0381C111.727 63.3159 111.923 63.5596 112.177 63.7437C112.471 63.957 112.831 64.0803 113.205 64.0965C113.579 64.1128 113.949 64.0211 114.264 63.8343L116.585 62.4574L124.51 55.0322L125.738 46.3048C125.894 45.1932 125.743 44.0632 125.298 43.02C124.854 41.9767 124.13 41.054 123.195 40.3378L120.61 53.6323L115.245 60.0549Z" fill="#FFB9B9"/>
<path d="M120.704 51.0276H126.359L126.231 38.5881C124.888 38.8975 123.687 39.5928 122.802 40.5734C121.916 41.5539 121.393 42.7688 121.306 44.042L120.704 51.0276Z" fill="#00B0FF"/>
<path d="M127.381 34.4111C127.768 34.4111 128.081 34.0646 128.081 33.6372C128.081 33.2097 127.768 32.8632 127.381 32.8632C126.995 32.8632 126.682 33.2097 126.682 33.6372C126.682 34.0646 126.995 34.4111 127.381 34.4111Z" fill="#FFB8B8"/>
</g>
<defs>
<clipPath id="clip0_56_256">
<rect width="129" height="85" fill="white" transform="translate(23 15)"/>
</clipPath>
</defs>
</svg>
