<svg width="129" height="118" viewBox="0 0 129 118" fill="none" xmlns="http://www.w3.org/2000/svg">
<g clip-path="url(#clip0_206_136)">
<path d="M128.945 118L48.6111 118L48.6111 117.719L129 117.719L128.945 118Z" fill="#3F3D56"/>
<path d="M45.9819 55.193L30.4572 55.193C30.213 55.1928 29.979 55.1033 29.8063 54.9441C29.6336 54.785 29.5365 54.5692 29.5363 54.3441L29.5363 40.0339C29.5365 39.8088 29.6336 39.593 29.8063 39.4339C29.979 39.2747 30.213 39.1852 30.4572 39.1849L45.9819 39.1849C46.226 39.1852 46.4601 39.2747 46.6328 39.4339C46.8054 39.593 46.9025 39.8088 46.9028 40.0339L46.9028 54.3441C46.9025 54.5692 46.8054 54.785 46.6328 54.9441C46.4601 55.1033 46.226 55.1928 45.9819 55.193V55.193ZM30.4572 39.4275C30.2828 39.4277 30.1156 39.4916 29.9923 39.6053C29.869 39.719 29.7996 39.8731 29.7994 40.0339L29.7994 54.3441C29.7996 54.5049 29.869 54.659 29.9923 54.7727C30.1156 54.8864 30.2828 54.9503 30.4572 54.9505L45.9819 54.9505C46.1563 54.9503 46.3235 54.8864 46.4468 54.7727C46.5701 54.659 46.6395 54.5049 46.6397 54.3441L46.6397 40.0339C46.6395 39.8731 46.5701 39.719 46.4468 39.6053C46.3235 39.4916 46.1563 39.4277 45.9819 39.4275L30.4572 39.4275Z" fill="#E6E6E6"/>
<path d="M31.6413 40.519C31.4669 40.5191 31.2997 40.5831 31.1764 40.6968C31.0531 40.8104 30.9837 40.9646 30.9835 41.1253L30.9835 53.2527C30.9837 53.4134 31.0531 53.5676 31.1764 53.6812C31.2997 53.7949 31.4669 53.8589 31.6413 53.859L44.7978 53.859C44.9722 53.8589 45.1394 53.7949 45.2628 53.6812C45.3861 53.5676 45.4555 53.4134 45.4557 53.2527L45.4557 41.1253C45.4555 40.9646 45.3861 40.8104 45.2628 40.6968C45.1394 40.5831 44.9722 40.5191 44.7978 40.5189L31.6413 40.519Z" fill="#E6E6E6"/>
<path opacity="0.8" d="M31.9702 61.8631C33.2055 61.8631 34.2069 60.9401 34.2069 59.8014C34.2069 58.6628 33.2055 57.7398 31.9702 57.7398C30.735 57.7398 29.7336 58.6628 29.7336 59.8014C29.7336 60.9401 30.735 61.8631 31.9702 61.8631Z" fill="#E6E6E6"/>
<path opacity="0.4" d="M44.6005 61.8631C45.8357 61.8631 46.8371 60.9401 46.8371 59.8014C46.8371 58.6628 45.8357 57.7398 44.6005 57.7398C43.3653 57.7398 42.3639 58.6628 42.3639 59.8014C42.3639 60.9401 43.3653 61.8631 44.6005 61.8631Z" fill="#E6E6E6"/>
<path opacity="0.6" d="M38.2853 61.8631C39.5205 61.8631 40.5219 60.9401 40.5219 59.8014C40.5219 58.6628 39.5205 57.7398 38.2853 57.7398C37.0501 57.7398 36.0487 58.6628 36.0487 59.8014C36.0487 60.9401 37.0501 61.8631 38.2853 61.8631Z" fill="#E6E6E6"/>
<path d="M88.7955 73.9067C88.7231 73.8409 88.6284 73.8 88.5273 73.7908C88.4262 73.7817 88.3247 73.8048 88.2398 73.8563L84.845 75.8944C84.7893 75.9279 84.7423 75.9724 84.7077 76.0248C84.673 76.0771 84.6514 76.136 84.6446 76.197C84.6377 76.258 84.6458 76.3197 84.6681 76.3775C84.6904 76.4352 84.7265 76.4877 84.7737 76.531L93.4068 84.4543C93.4487 84.4928 93.4986 84.5233 93.5534 84.5439C93.6082 84.5644 93.667 84.5748 93.7262 84.5742C93.7854 84.5737 93.8439 84.5623 93.8983 84.5408C93.9527 84.5192 94.0019 84.4879 94.043 84.4487L96.8722 81.7495C96.954 81.6712 96.9989 81.5662 96.9972 81.4575C96.9954 81.3488 96.9472 81.2452 96.8631 81.169L88.7955 73.9067Z" fill="#3F3D56"/>
<path d="M85.5138 76.1124L85.8651 75.9059C85.8281 75.9667 85.8145 76.0372 85.8266 76.1061C85.8386 76.1749 85.8756 76.2379 85.9314 76.2849C85.9873 76.3319 86.0588 76.36 86.1342 76.3648C86.2097 76.3695 86.2846 76.3506 86.3469 76.311L88.6203 74.8703C88.672 74.8376 88.7127 74.7922 88.7377 74.7392C88.7627 74.6863 88.7711 74.6279 88.7619 74.5707C88.7527 74.5136 88.7262 74.46 88.6856 74.416C88.6449 74.372 88.5916 74.3395 88.5319 74.3221L88.7129 74.2157C88.7364 74.2019 88.7643 74.1959 88.792 74.1988C88.8196 74.2017 88.8454 74.2132 88.865 74.2315L96.5129 81.1594C96.5243 81.17 96.5333 81.1827 96.5393 81.1966C96.5454 81.2105 96.5483 81.2253 96.5481 81.2403C96.5478 81.2552 96.5442 81.27 96.5377 81.2837C96.5311 81.2974 96.5217 81.3097 96.5098 81.32L93.7323 83.8147C93.7093 83.8347 93.6787 83.8456 93.647 83.8452C93.6154 83.8448 93.5852 83.8331 93.5628 83.8125L85.4933 76.2866C85.4804 76.2747 85.4705 76.2603 85.4645 76.2444C85.4584 76.2286 85.4563 76.2117 85.4582 76.1949C85.4602 76.1782 85.4662 76.1621 85.4758 76.1478C85.4855 76.1335 85.4984 76.1214 85.5138 76.1124V76.1124Z" fill="white"/>
<path d="M94.3406 79.6297L91.9945 81.6687L86.4141 76.5864L89.2462 74.8873L94.3406 79.6297Z" fill="#00B0FF"/>
<path d="M86.631 77.8408C86.6462 77.8267 86.6547 77.8077 86.6547 77.7878C86.6547 77.768 86.6462 77.749 86.631 77.7349L86.143 77.2851C86.1275 77.2715 86.1069 77.2639 86.0855 77.2639C86.0642 77.2639 86.0436 77.2715 86.0281 77.2851C86.0129 77.2991 86.0044 77.3182 86.0044 77.338C86.0044 77.3578 86.0129 77.3769 86.0281 77.3909L86.5161 77.8408C86.5316 77.8544 86.5522 77.862 86.5736 77.862C86.5949 77.862 86.6155 77.8544 86.631 77.8408V77.8408Z" fill="#E6E6E6"/>
<path d="M87.453 78.4927L86.965 78.0428C86.9498 78.0288 86.9291 78.0209 86.9076 78.0209C86.8861 78.0209 86.8654 78.0288 86.8502 78.0428C86.835 78.0569 86.8264 78.0759 86.8264 78.0958C86.8264 78.1156 86.835 78.1347 86.8502 78.1487L87.3382 78.5985C87.3458 78.6055 87.3547 78.611 87.3646 78.6148C87.3744 78.6185 87.385 78.6205 87.3956 78.6205C87.4063 78.6205 87.4169 78.6185 87.4267 78.6148C87.4366 78.611 87.4455 78.6055 87.453 78.5985C87.4606 78.5916 87.4666 78.5833 87.4706 78.5743C87.4747 78.5652 87.4768 78.5554 87.4768 78.5456C87.4768 78.5358 87.4747 78.526 87.4706 78.517C87.4666 78.5079 87.4606 78.4996 87.453 78.4927V78.4927Z" fill="#E6E6E6"/>
<path d="M94.2866 81.885C94.5893 81.885 94.8347 81.6589 94.8347 81.3799C94.8347 81.1009 94.5893 80.8747 94.2866 80.8747C93.9839 80.8747 93.7385 81.1009 93.7385 81.3799C93.7385 81.6589 93.9839 81.885 94.2866 81.885Z" fill="#00B0FF"/>
<path d="M110.171 82.4149L109.749 84.3131C109.688 84.5856 109.707 84.8681 109.804 85.1316C109.9 85.3952 110.071 85.6304 110.298 85.8132C110.526 85.996 110.802 86.1198 111.098 86.172C111.395 86.2242 111.701 86.203 111.986 86.1104V86.1104C112.398 85.9763 112.738 85.7015 112.937 85.3428C113.135 84.984 113.177 84.5686 113.053 84.1824L112.484 82.4149L117.625 68.5537L113.256 68.5537L110.171 82.4149Z" fill="#FFB8B8"/>
<path d="M105.544 54.811C107.745 54.811 109.528 53.1667 109.528 51.1384C109.528 49.1101 107.745 47.4658 105.544 47.4658C103.344 47.4658 101.56 49.1101 101.56 51.1384C101.56 53.1667 103.344 54.811 105.544 54.811Z" fill="#FFB8B8"/>
<path d="M104.902 57.6543L110.171 57.062C108.962 55.6648 108.505 54.206 108.886 52.6785L104.13 53.1524L104.902 57.6543Z" fill="#FFB8B8"/>
<path d="M98.3467 78.1499L110.814 75.5435C113.478 73.6332 115.209 69.8439 116.547 65.2619C117.521 61.9227 115.77 58.3677 112.329 56.9908C112.247 56.9579 112.164 56.9263 112.08 56.8958L109.271 55.8773L104.644 56.2327L102.994 56.6477C102.644 56.7357 102.329 56.9156 102.088 57.1655C101.846 57.4154 101.689 57.7245 101.635 58.0553C99.4156 65.5618 97.9526 72.524 98.3467 78.1499Z" fill="#00B0FF"/>
<path d="M112.613 70.8047L118.14 70.8047L116.34 60.8531L112.613 61.2085L112.613 70.8047Z" fill="#00B0FF"/>
<path d="M93.9769 113.928L97.3186 113.928L104.323 91.241L107.026 113.928L110.942 113.928L112.485 77.5575C111.896 74.767 111.909 71.4414 112.228 67.8429C114.984 66.0643 113.974 61.8423 114.279 57.6004C114.282 57.5592 114.268 57.5185 114.239 57.4867L112.463 56.6357C112.439 56.6102 112.407 56.5923 112.372 56.5846C112.336 56.5769 112.299 56.5798 112.265 56.5928C112.231 56.6058 112.203 56.6282 112.184 56.657C112.165 56.6858 112.156 56.7194 112.159 56.753C112.114 59.7189 112.981 63.2461 111.585 65.5919C110.068 60.8118 108.091 56.7983 104.242 55.9022C104.169 55.8856 104.093 55.887 104.021 55.9062L103.304 56.0949C103.224 56.1161 103.153 56.1581 103.099 56.2159C103.045 56.2738 103.011 56.3448 103 56.4205C102.989 56.4961 103.002 56.5731 103.038 56.6419C103.074 56.7107 103.131 56.7683 103.201 56.8078C106.723 58.8131 108.999 62.1706 109.143 67.8429C106.403 71.417 103.735 73.5327 98.932 76.1346C98.6901 76.2661 98.4852 76.4482 98.3338 76.6661C98.1824 76.8841 98.0887 77.1319 98.0603 77.3894L93.9769 113.928Z" fill="#2F2E41"/>
<path d="M106.061 54.4749L108.886 53.9817L110.567 51.3349C110.974 50.6927 111.151 49.9478 111.071 49.2073C110.99 48.4668 110.657 47.7688 110.12 47.2137V47.2137C109.701 46.7811 109.172 46.4507 108.581 46.2518C107.99 46.053 107.355 45.9918 106.732 46.0738L103.071 46.556C102.755 46.5976 102.451 46.6963 102.177 46.8466C101.903 46.9968 101.664 47.1956 101.473 47.4314C101.283 47.6672 101.145 47.9354 101.067 48.2206C100.99 48.5058 100.974 48.8023 101.021 49.093L103.488 49.4798L106.061 54.4749Z" fill="#2F2E41"/>
<path d="M90.0645 117.897L95.9504 117.897C96.2283 117.897 96.5029 117.842 96.7557 117.735C97.0084 117.629 97.2333 117.473 97.4151 117.28C97.5968 117.086 97.7312 116.858 97.8091 116.612C97.887 116.367 97.9066 116.108 97.8665 115.855L97.497 113.519L94.8255 113.337L89.5167 115.626C89.2751 115.73 89.0743 115.901 88.942 116.114C88.8096 116.328 88.7521 116.574 88.7774 116.818C88.8079 117.113 88.9567 117.388 89.1947 117.587C89.4327 117.787 89.7428 117.897 90.0645 117.897V117.897Z" fill="#2F2E41"/>
<path d="M103.431 117.897L109.317 117.897C109.595 117.897 109.87 117.842 110.122 117.735C110.375 117.629 110.6 117.473 110.782 117.28C110.964 117.086 111.098 116.858 111.176 116.612C111.254 116.367 111.273 116.108 111.233 115.855L110.864 113.519L108.192 113.337L102.883 115.626C102.642 115.73 102.441 115.901 102.309 116.114C102.176 116.328 102.119 116.574 102.144 116.818V116.818C102.175 117.113 102.323 117.388 102.561 117.587C102.799 117.787 103.11 117.897 103.431 117.897V117.897Z" fill="#2F2E41"/>
<path d="M92.2445 78.0549L89.6982 78.8708C89.3929 78.9686 89.1218 79.1404 88.9133 79.368C88.7049 79.5957 88.5668 79.8709 88.5134 80.1648C88.4601 80.4586 88.4936 80.7603 88.6103 81.0381C88.7271 81.3159 88.9228 81.5596 89.1769 81.7437V81.7437C89.4714 81.957 89.8307 82.0803 90.2047 82.0965C90.5788 82.1128 90.9491 82.0211 91.2639 81.8343L93.5848 80.4574L101.51 73.0322L102.738 64.3048C102.894 63.1932 102.743 62.0632 102.298 61.0199C101.854 59.9767 101.13 59.054 100.195 58.3378V58.3378L97.6105 71.6323L92.2445 78.0549Z" fill="#FFB9B9"/>
<path d="M97.7041 69.0276L103.359 69.0276L103.231 56.5881C101.888 56.8975 100.687 57.5928 99.8017 58.5734C98.9164 59.5539 98.3926 60.7688 98.3063 62.042L97.7041 69.0276Z" fill="#00B0FF"/>
<path d="M104.381 52.4111C104.768 52.4111 105.081 52.0646 105.081 51.6372C105.081 51.2097 104.768 50.8632 104.381 50.8632C103.995 50.8632 103.682 51.2097 103.682 51.6372C103.682 52.0646 103.995 52.4111 104.381 52.4111Z" fill="#FFB8B8"/>
</g>
<path d="M83.1963 16.426C82.2292 15.2384 80.38 15.4883 79.8994 16.8619L74.468 32.3844L63.8639 34.9239L57.3918 25.6544L62.8233 10.1318C63.3068 8.74988 62.0422 7.29061 60.569 7.52119C52.8932 8.72891 46.265 13.8151 43.5595 21.5437C40.6641 29.8185 43.186 38.9326 49.1395 45.2697L33.5529 89.8147C31.7276 95.0313 34.6165 100.982 40.0052 103.106C45.394 105.23 51.2426 102.723 53.0679 97.5059L68.6413 52.9985C77.0669 52.3511 84.5584 47.1823 87.4728 38.8532C90.1805 31.1149 88.2782 22.6595 83.1963 16.426ZM45.0223 97.183C43.1098 98.0029 40.7917 97.0893 39.847 95.1433C38.9016 93.1959 39.6876 90.9533 41.6 90.1334C43.5125 89.3134 45.8299 90.2256 46.7753 92.173C47.7199 94.119 46.9347 96.3631 45.0223 97.183Z" fill="#00B0FF"/>
<defs>
<clipPath id="clip0_206_136">
<rect width="129" height="85" fill="white" transform="translate(0 33)"/>
</clipPath>
</defs>
</svg>
