<svg width="129" height="85" viewBox="0 0 129 85" fill="none" xmlns="http://www.w3.org/2000/svg">
<g clip-path="url(#clip0_205_79)">
<path d="M128.945 85L48.6111 85L48.6111 84.7186L129 84.7186L128.945 85Z" fill="#3F3D56"/>
<path d="M45.9819 22.193L30.4572 22.193C30.213 22.1928 29.979 22.1033 29.8063 21.9441C29.6336 21.785 29.5365 21.5692 29.5363 21.3441L29.5363 7.03385C29.5365 6.80878 29.6336 6.59301 29.8063 6.43386C29.979 6.27471 30.213 6.18519 30.4572 6.18494L45.9819 6.18494C46.226 6.18519 46.4601 6.27471 46.6328 6.43386C46.8054 6.593 46.9025 6.80878 46.9028 7.03385L46.9028 21.3441C46.9025 21.5692 46.8054 21.785 46.6328 21.9441C46.4601 22.1033 46.226 22.1928 45.9819 22.193V22.193ZM30.4572 6.42748C30.2828 6.42767 30.1156 6.49162 29.9923 6.60529C29.869 6.71897 29.7996 6.87309 29.7994 7.03385L29.7994 21.3441C29.7996 21.5049 29.869 21.659 29.9923 21.7727C30.1156 21.8864 30.2828 21.9503 30.4572 21.9505L45.9819 21.9505C46.1563 21.9503 46.3235 21.8864 46.4468 21.7727C46.5701 21.659 46.6395 21.5049 46.6397 21.3441L46.6397 7.03385C46.6395 6.87309 46.5701 6.71897 46.4468 6.60529C46.3235 6.49162 46.1563 6.42767 45.9819 6.42748L30.4572 6.42748Z" fill="#E6E6E6"/>
<path d="M31.6413 7.51896C31.4669 7.51915 31.2997 7.58309 31.1764 7.69677C31.0531 7.81045 30.9837 7.96457 30.9835 8.12533L30.9835 20.2527C30.9837 20.4134 31.0531 20.5676 31.1764 20.6812C31.2997 20.7949 31.4669 20.8589 31.6413 20.859L44.7978 20.859C44.9722 20.8589 45.1394 20.7949 45.2628 20.6812C45.3861 20.5676 45.4555 20.4134 45.4557 20.2527L45.4557 8.12532C45.4555 7.96456 45.3861 7.81044 45.2628 7.69676C45.1394 7.58309 44.9722 7.51914 44.7978 7.51895L31.6413 7.51896Z" fill="#E6E6E6"/>
<path opacity="0.8" d="M31.9702 28.8631C33.2055 28.8631 34.2069 27.94 34.2069 26.8014C34.2069 25.6628 33.2055 24.7398 31.9702 24.7398C30.735 24.7398 29.7336 25.6628 29.7336 26.8014C29.7336 27.94 30.735 28.8631 31.9702 28.8631Z" fill="#E6E6E6"/>
<path opacity="0.4" d="M44.6005 28.8631C45.8357 28.8631 46.8371 27.94 46.8371 26.8014C46.8371 25.6628 45.8357 24.7398 44.6005 24.7398C43.3653 24.7398 42.3639 25.6628 42.3639 26.8014C42.3639 27.94 43.3653 28.8631 44.6005 28.8631Z" fill="#E6E6E6"/>
<path opacity="0.6" d="M38.2853 28.8631C39.5205 28.8631 40.5219 27.94 40.5219 26.8014C40.5219 25.6628 39.5205 24.7398 38.2853 24.7398C37.0501 24.7398 36.0487 25.6628 36.0487 26.8014C36.0487 27.94 37.0501 28.8631 38.2853 28.8631Z" fill="#E6E6E6"/>
<path d="M88.7955 40.9067C88.7231 40.8409 88.6284 40.8 88.5273 40.7908C88.4262 40.7817 88.3247 40.8048 88.2398 40.8563L84.845 42.8944C84.7893 42.9279 84.7423 42.9724 84.7077 43.0248C84.673 43.0771 84.6514 43.136 84.6446 43.197C84.6377 43.258 84.6458 43.3197 84.6681 43.3775C84.6904 43.4353 84.7265 43.4877 84.7737 43.531L93.4068 51.4543C93.4487 51.4928 93.4986 51.5233 93.5534 51.5439C93.6082 51.5644 93.667 51.5748 93.7262 51.5743C93.7854 51.5737 93.8439 51.5623 93.8983 51.5408C93.9527 51.5192 94.0019 51.4879 94.043 51.4487L96.8722 48.7495C96.954 48.6712 96.9989 48.5663 96.9972 48.4575C96.9954 48.3488 96.9472 48.2452 96.8631 48.169L88.7955 40.9067Z" fill="#3F3D56"/>
<path d="M85.5138 43.1124L85.8651 42.9059C85.8281 42.9667 85.8145 43.0372 85.8266 43.106C85.8386 43.1749 85.8756 43.2379 85.9314 43.2849C85.9873 43.3318 86.0588 43.36 86.1342 43.3647C86.2097 43.3695 86.2846 43.3506 86.3469 43.311L88.6203 41.8703C88.672 41.8376 88.7127 41.7922 88.7377 41.7392C88.7627 41.6863 88.7711 41.6279 88.7619 41.5707C88.7527 41.5136 88.7262 41.46 88.6856 41.416C88.6449 41.372 88.5916 41.3395 88.5319 41.3221L88.7129 41.2157C88.7364 41.2019 88.7643 41.1959 88.792 41.1988C88.8196 41.2017 88.8454 41.2132 88.865 41.2314L96.5129 48.1594C96.5243 48.17 96.5333 48.1827 96.5393 48.1965C96.5454 48.2104 96.5483 48.2253 96.5481 48.2403C96.5478 48.2552 96.5442 48.27 96.5377 48.2837C96.5311 48.2974 96.5217 48.3097 96.5098 48.32L93.7323 50.8147C93.7093 50.8347 93.6787 50.8456 93.647 50.8452C93.6154 50.8448 93.5852 50.8331 93.5628 50.8125L85.4933 43.2866C85.4804 43.2747 85.4705 43.2603 85.4645 43.2444C85.4584 43.2286 85.4563 43.2116 85.4582 43.1949C85.4602 43.1782 85.4662 43.1621 85.4758 43.1478C85.4855 43.1335 85.4984 43.1214 85.5138 43.1124V43.1124Z" fill="white"/>
<path d="M94.3406 46.6297L91.9945 48.6687L86.4141 43.5864L89.2462 41.8873L94.3406 46.6297Z" fill="#00B0FF"/>
<path d="M86.631 44.8408C86.6462 44.8267 86.6547 44.8077 86.6547 44.7878C86.6547 44.768 86.6462 44.749 86.631 44.7349L86.143 44.2851C86.1275 44.2715 86.1069 44.2639 86.0855 44.2639C86.0642 44.2639 86.0436 44.2715 86.0281 44.2851C86.0129 44.2991 86.0044 44.3182 86.0044 44.338C86.0044 44.3578 86.0129 44.3769 86.0281 44.3909L86.5161 44.8408C86.5316 44.8544 86.5522 44.862 86.5736 44.862C86.5949 44.862 86.6155 44.8544 86.631 44.8408V44.8408Z" fill="#E6E6E6"/>
<path d="M87.453 45.4927L86.965 45.0428C86.9498 45.0288 86.9291 45.0209 86.9076 45.0209C86.8861 45.0209 86.8654 45.0288 86.8502 45.0428C86.835 45.0569 86.8264 45.0759 86.8264 45.0958C86.8264 45.1156 86.835 45.1346 86.8502 45.1487L87.3382 45.5985C87.3458 45.6055 87.3547 45.611 87.3646 45.6147C87.3744 45.6185 87.385 45.6204 87.3956 45.6204C87.4063 45.6204 87.4169 45.6185 87.4267 45.6147C87.4366 45.611 87.4455 45.6055 87.453 45.5985C87.4606 45.5916 87.4666 45.5833 87.4706 45.5742C87.4747 45.5652 87.4768 45.5554 87.4768 45.5456C87.4768 45.5358 87.4747 45.526 87.4706 45.5169C87.4666 45.5079 87.4606 45.4996 87.453 45.4927V45.4927Z" fill="#E6E6E6"/>
<path d="M94.2866 48.885C94.5893 48.885 94.8347 48.6589 94.8347 48.3798C94.8347 48.1008 94.5893 47.8747 94.2866 47.8747C93.9839 47.8747 93.7385 48.1008 93.7385 48.3798C93.7385 48.6589 93.9839 48.885 94.2866 48.885Z" fill="#00B0FF"/>
<path d="M110.171 49.4149L109.749 51.3131C109.688 51.5856 109.707 51.8681 109.804 52.1316C109.9 52.3952 110.071 52.6304 110.298 52.8132C110.526 52.996 110.802 53.1198 111.098 53.172C111.395 53.2242 111.701 53.203 111.986 53.1104V53.1104C112.398 52.9763 112.738 52.7015 112.937 52.3428C113.135 51.984 113.177 51.5686 113.053 51.1824L112.484 49.4149L117.625 35.5537L113.256 35.5537L110.171 49.4149Z" fill="#FFB8B8"/>
<path d="M105.544 21.811C107.745 21.811 109.528 20.1667 109.528 18.1384C109.528 16.1101 107.745 14.4658 105.544 14.4658C103.344 14.4658 101.56 16.1101 101.56 18.1384C101.56 20.1667 103.344 21.811 105.544 21.811Z" fill="#FFB8B8"/>
<path d="M104.902 24.6543L110.171 24.062C108.962 22.6648 108.505 21.206 108.886 19.6785L104.13 20.1524L104.902 24.6543Z" fill="#FFB8B8"/>
<path d="M98.3467 45.1499L110.814 42.5435C113.478 40.6332 115.209 36.8439 116.547 32.2619C117.521 28.9227 115.77 25.3677 112.329 23.9908C112.247 23.9579 112.164 23.9262 112.08 23.8958L109.271 22.8773L104.644 23.2327L102.994 23.6477C102.644 23.7357 102.329 23.9156 102.088 24.1655C101.846 24.4154 101.689 24.7245 101.635 25.0553C99.4156 32.5618 97.9526 39.524 98.3467 45.1499Z" fill="#00B0FF"/>
<path d="M112.613 37.8047L118.14 37.8047L116.34 27.8531L112.613 28.2085L112.613 37.8047Z" fill="#00B0FF"/>
<path d="M93.9769 80.9283L97.3186 80.9283L104.323 58.241L107.026 80.9283L110.942 80.9283L112.485 44.5575C111.896 41.767 111.909 38.4413 112.228 34.8429C114.984 33.0643 113.974 28.8423 114.279 24.6004C114.282 24.5592 114.268 24.5185 114.239 24.4866L112.463 23.6357C112.439 23.6102 112.407 23.5923 112.372 23.5846C112.336 23.5769 112.299 23.5798 112.265 23.5928C112.231 23.6058 112.203 23.6282 112.184 23.657C112.165 23.6858 112.156 23.7194 112.159 23.753C112.114 26.7189 112.981 30.2461 111.585 32.5919C110.068 27.8118 108.091 23.7983 104.242 22.9022C104.169 22.8856 104.093 22.8869 104.021 22.9062L103.304 23.0949C103.224 23.1161 103.153 23.1581 103.099 23.2159C103.045 23.2738 103.011 23.3448 103 23.4205C102.989 23.4961 103.002 23.5731 103.038 23.6419C103.074 23.7107 103.131 23.7683 103.201 23.8078C106.723 25.8131 108.999 29.1706 109.143 34.8429C106.403 38.417 103.735 40.5326 98.932 43.1346C98.6901 43.2661 98.4852 43.4482 98.3338 43.6661C98.1824 43.8841 98.0887 44.1318 98.0603 44.3893L93.9769 80.9283Z" fill="#2F2E41"/>
<path d="M106.061 21.4749L108.886 20.9817L110.567 18.3349C110.974 17.6927 111.151 16.9478 111.071 16.2073C110.99 15.4668 110.657 14.7688 110.12 14.2137V14.2137C109.701 13.7811 109.172 13.4507 108.581 13.2518C107.99 13.053 107.355 12.9918 106.732 13.0738L103.071 13.556C102.755 13.5976 102.451 13.6963 102.177 13.8466C101.903 13.9968 101.664 14.1956 101.473 14.4314C101.283 14.6672 101.145 14.9354 101.067 15.2206C100.99 15.5058 100.974 15.8023 101.021 16.093L103.488 16.4798L106.061 21.4749Z" fill="#2F2E41"/>
<path d="M90.0645 84.8971L95.9504 84.8971C96.2283 84.8971 96.5029 84.842 96.7557 84.7354C97.0084 84.6289 97.2333 84.4735 97.4151 84.2797C97.5968 84.0859 97.7312 83.8584 97.8091 83.6125C97.887 83.3666 97.9066 83.1081 97.8665 82.8546L97.497 80.5193L94.8255 80.3369L89.5167 82.6258C89.2751 82.73 89.0743 82.9005 88.942 83.114C88.8096 83.3275 88.7521 83.5735 88.7774 83.8183C88.8079 84.1135 88.9567 84.3876 89.1947 84.5871C89.4327 84.7866 89.7428 84.8971 90.0645 84.8971V84.8971Z" fill="#2F2E41"/>
<path d="M103.431 84.8971L109.317 84.8971C109.595 84.8971 109.87 84.842 110.122 84.7354C110.375 84.6289 110.6 84.4735 110.782 84.2797C110.964 84.0859 111.098 83.8584 111.176 83.6125C111.254 83.3666 111.273 83.1081 111.233 82.8546L110.864 80.5193L108.192 80.3369L102.883 82.6258C102.642 82.73 102.441 82.9005 102.309 83.114C102.176 83.3275 102.119 83.5735 102.144 83.8183V83.8183C102.175 84.1135 102.323 84.3876 102.561 84.5871C102.799 84.7866 103.11 84.8971 103.431 84.8971V84.8971Z" fill="#2F2E41"/>
<path d="M92.2445 45.0549L89.6982 45.8708C89.3929 45.9686 89.1218 46.1404 88.9133 46.368C88.7049 46.5957 88.5668 46.8709 88.5134 47.1648C88.4601 47.4586 88.4936 47.7603 88.6103 48.0381C88.7271 48.3159 88.9228 48.5596 89.1769 48.7437V48.7437C89.4714 48.957 89.8307 49.0803 90.2047 49.0965C90.5788 49.1128 90.9491 49.0211 91.2639 48.8343L93.5848 47.4574L101.51 40.0322L102.738 31.3048C102.894 30.1932 102.743 29.0632 102.298 28.02C101.854 26.9767 101.13 26.054 100.195 25.3378V25.3378L97.6105 38.6323L92.2445 45.0549Z" fill="#FFB9B9"/>
<path d="M97.7041 36.0276L103.359 36.0276L103.231 23.5881C101.888 23.8975 100.687 24.5928 99.8017 25.5734C98.9164 26.5539 98.3926 27.7688 98.3063 29.042L97.7041 36.0276Z" fill="#00B0FF"/>
<path d="M104.381 19.4111C104.768 19.4111 105.081 19.0646 105.081 18.6372C105.081 18.2097 104.768 17.8632 104.381 17.8632C103.995 17.8632 103.682 18.2097 103.682 18.6372C103.682 19.0646 103.995 19.4111 104.381 19.4111Z" fill="#FFB8B8"/>
<path d="M77.1334 66.5798C79.6008 70.7665 76.5036 76 71.5753 76H7.42392C2.48616 76 -0.596776 70.7584 1.86589 66.5798L33.942 12.1387C36.4107 7.94999 42.5938 7.95757 45.0581 12.1387L77.1334 66.5798ZM39.5 55.3242C36.1039 55.3242 33.3507 58.0193 33.3507 61.3438C33.3507 64.6682 36.1039 67.3633 39.5 67.3633C42.8962 67.3633 45.6493 64.6682 45.6493 61.3438C45.6493 58.0193 42.8962 55.3242 39.5 55.3242ZM33.6618 33.6871L34.6534 51.484C34.6998 52.3168 35.4033 52.9688 36.2552 52.9688H42.7449C43.5968 52.9688 44.3002 52.3168 44.3466 51.484L45.3383 33.6871C45.3884 32.7876 44.6568 32.0313 43.7365 32.0313H35.2634C34.3432 32.0313 33.6117 32.7876 33.6618 33.6871Z" fill="#00B0FF"/>
</g>
<defs>
<clipPath id="clip0_205_79">
<rect width="129" height="85" fill="white"/>
</clipPath>
</defs>
</svg>
