<svg width="126" height="119" viewBox="0 0 126 119" fill="none" xmlns="http://www.w3.org/2000/svg">
<path d="M78.4261 20.4354C78.3263 19.7144 78.0532 19.0484 77.6405 18.52C77.2277 17.9915 76.6936 17.6237 76.1041 17.4622L20.9872 2.85911C20.1948 2.64971 19.3602 2.83053 18.6668 3.36185C17.9734 3.89317 17.4778 4.73152 17.289 5.69271L0.710323 90.2972C0.522375 91.2586 0.656666 92.2638 1.08369 93.092C1.51071 93.9202 2.19554 94.5036 2.98772 94.714L58.1066 109.318C58.899 109.526 59.7332 109.345 60.4265 108.814C61.1197 108.283 61.6154 107.445 61.8048 106.484L78.3835 21.8795C78.4778 21.405 78.493 20.9142 78.4281 20.436L78.4261 20.4354ZM61.1393 106.308C60.992 107.055 60.6065 107.707 60.0672 108.12C59.5278 108.534 58.8788 108.674 58.2624 108.512L3.14547 93.909C2.52916 93.7455 1.99631 93.2918 1.66407 92.6476C1.33183 92.0034 1.22739 91.2214 1.37372 90.4735L17.9524 5.86899C18.0998 5.12157 18.4854 4.4698 19.0247 4.05658C19.5639 3.64335 20.2129 3.50241 20.8293 3.66465L75.9482 18.2683C76.412 18.3934 76.8318 18.6833 77.1541 19.1011C77.4765 19.5189 77.6867 20.0456 77.758 20.6139C77.7714 20.7269 77.7798 20.8409 77.783 20.9552C77.7893 21.2066 77.768 21.4584 77.7199 21.7042L61.1393 106.308Z" fill="#3F3D56"/>
<path d="M63.4491 35.1212L46.8471 30.7225C46.4949 30.6292 46.1903 30.3699 46.0004 30.0017C45.8106 29.6334 45.751 29.1865 45.8347 28.759C45.9185 28.3316 46.1387 27.9588 46.447 27.7225C46.7554 27.4863 47.1265 27.406 47.4787 27.4994L64.0807 31.898C64.433 31.9914 64.7376 32.2507 64.9274 32.6189C65.1173 32.9871 65.1769 33.4341 65.0932 33.8615C65.0094 34.2889 64.7891 34.6618 64.4808 34.898C64.1725 35.1342 63.8014 35.2145 63.4491 35.1212V35.1212Z" fill="#3F3D56"/>
<path d="M61.7914 43.5816L45.1894 39.183C45.0147 39.137 44.8499 39.0497 44.7044 38.9261C44.5589 38.8025 44.4356 38.645 44.3414 38.4626C44.2472 38.2802 44.184 38.0765 44.1555 37.8631C44.127 37.6497 44.1337 37.4308 44.1752 37.219C44.2167 37.0072 44.2922 36.8066 44.3974 36.6286C44.5026 36.4507 44.6354 36.2989 44.7883 36.1819C44.9411 36.065 45.111 35.9852 45.2882 35.9471C45.4654 35.909 45.6464 35.9133 45.821 35.9598L62.423 40.3585C62.5976 40.4045 62.7624 40.4917 62.9079 40.6154C63.0534 40.739 63.1768 40.8965 63.271 41.0789C63.3651 41.2613 63.4283 41.465 63.4568 41.6784C63.4853 41.8918 63.4787 42.1106 63.4371 42.3224C63.3956 42.5343 63.3201 42.7349 63.2149 42.9128C63.1097 43.0908 62.9769 43.2426 62.824 43.3595C62.6712 43.4765 62.5013 43.5563 62.3241 43.5944C62.1469 43.6325 61.9659 43.6282 61.7914 43.5816V43.5816Z" fill="#3F3D56"/>
<path d="M35.7269 41.7435L23.5943 38.5289C23.1982 38.4235 22.8558 38.1316 22.6423 37.7175C22.4288 37.3034 22.3615 36.8008 22.4553 36.3199L25.8594 18.9478C25.9541 18.4672 26.2019 18.0481 26.5487 17.7824C26.8954 17.5167 27.3127 17.4262 27.709 17.5306L39.8417 20.7452C40.2378 20.8506 40.5801 21.1425 40.7937 21.5566C41.0072 21.9707 41.0744 22.4733 40.9807 22.9541L37.5765 40.3263C37.4819 40.8069 37.234 41.226 36.8873 41.4917C36.5405 41.7574 36.1232 41.8479 35.7269 41.7435V41.7435Z" fill="#00B0FF"/>
<path d="M58.2814 60.875L20.7609 50.9341C20.4087 50.8408 20.1041 50.5815 19.9143 50.2132C19.7244 49.845 19.6648 49.398 19.7485 48.9706C19.8323 48.5432 20.0525 48.1704 20.3609 47.9341C20.6692 47.6979 21.0403 47.6176 21.3925 47.7109L58.913 57.6519C59.2652 57.7452 59.5698 58.0045 59.7597 58.3727C59.9495 58.741 60.0091 59.1879 59.9254 59.6154C59.8416 60.0428 59.6214 60.4156 59.313 60.6519C59.0047 60.8881 58.6336 60.9684 58.2814 60.875V60.875Z" fill="#CCCCCC"/>
<path d="M56.6234 69.3355L19.103 59.3945C18.7507 59.3012 18.4462 59.0419 18.2563 58.6737C18.0664 58.3055 18.0068 57.8585 18.0906 57.4311C18.1743 57.0036 18.3946 56.6308 18.7029 56.3946C19.0112 56.1583 19.3823 56.078 19.7346 56.1714L57.255 66.1123C57.6073 66.2057 57.9118 66.4649 58.1017 66.8332C58.2916 67.2014 58.3512 67.6484 58.2674 68.0758C58.1837 68.5032 57.9634 68.8761 57.6551 69.1123C57.3468 69.3485 56.9757 69.4288 56.6234 69.3355V69.3355Z" fill="#CCCCCC"/>
<path d="M54.9656 77.7959L17.4452 67.855C17.0934 67.7612 16.7893 67.5017 16.5998 67.1337C16.4103 66.7656 16.3509 66.319 16.4346 65.892C16.5182 65.4649 16.7382 65.0923 17.0461 64.8561C17.354 64.6198 17.7247 64.5391 18.0768 64.6318L55.5972 74.5728C55.7719 74.6187 55.9366 74.706 56.0821 74.8296C56.2276 74.9532 56.351 75.1108 56.4452 75.2932C56.5394 75.4756 56.6026 75.6793 56.6311 75.8927C56.6596 76.106 56.6529 76.3249 56.6114 76.5367C56.5699 76.7485 56.4944 76.9492 56.3892 77.1271C56.284 77.3051 56.1512 77.4569 55.9983 77.5738C55.8455 77.6908 55.6756 77.7706 55.4984 77.8087C55.3212 77.8468 55.1401 77.8425 54.9656 77.7959V77.7959Z" fill="#CCCCCC"/>
<path d="M53.3077 86.2564L15.7873 76.3155C15.435 76.2221 15.1305 75.9628 14.9406 75.5946C14.7508 75.2264 14.6911 74.7794 14.7749 74.352C14.8587 73.9245 15.0789 73.5517 15.3872 73.3155C15.6955 73.0792 16.0666 72.999 16.4189 73.0923L53.9393 83.0332C54.2916 83.1266 54.5962 83.3859 54.786 83.7541C54.9759 84.1223 55.0355 84.5693 54.9517 84.9967C54.868 85.4241 54.6477 85.797 54.3394 86.0332C54.0311 86.2694 53.66 86.3497 53.3077 86.2564V86.2564Z" fill="#CCCCCC"/>
<path d="M51.6499 94.7168L14.1295 84.7759C13.7772 84.6826 13.4726 84.4233 13.2828 84.055C13.0929 83.6868 13.0333 83.2398 13.1171 82.8124C13.2008 82.385 13.4211 82.0122 13.7294 81.7759C14.0377 81.5397 14.4088 81.4594 14.7611 81.5527L52.2815 91.4937C52.6338 91.587 52.9383 91.8463 53.1282 92.2145C53.3181 92.5828 53.3777 93.0297 53.2939 93.4572C53.2102 93.8846 52.9899 94.2574 52.6816 94.4937C52.3733 94.7299 52.0022 94.8102 51.6499 94.7168V94.7168Z" fill="#CCCCCC"/>
<path d="M76.0926 34.5562C83.1718 36.4318 90.2751 30.9891 91.9583 22.3995C93.6415 13.81 89.2671 5.32626 82.1879 3.45065C75.1087 1.57503 68.0054 7.01775 66.3222 15.6073C64.6391 24.1969 69.0134 32.6806 76.0926 34.5562Z" fill="#00B0FF"/>
<path d="M76.7075 24.5998C76.419 24.524 76.1605 24.3364 75.9709 24.0654L75.9592 24.0486L73.4947 20.4544C73.3806 20.2877 73.2952 20.0948 73.2434 19.8868C73.1916 19.6788 73.1745 19.4598 73.1929 19.2422C73.2113 19.0246 73.265 18.8128 73.3508 18.6188C73.4366 18.4247 73.5529 18.2523 73.693 18.1114C73.8331 17.9704 73.9944 17.8637 74.1675 17.7973C74.3406 17.7309 74.5222 17.7061 74.702 17.7244C74.8817 17.7426 75.0561 17.8035 75.2152 17.9036C75.3742 18.0038 75.5147 18.1411 75.6288 18.3078L77.2243 20.6403L83.2653 14.5633C83.4053 14.4224 83.5665 14.3157 83.7396 14.2493C83.9126 14.183 84.0942 14.1582 84.2739 14.1764C84.4535 14.1947 84.6278 14.2556 84.7868 14.3556C84.9458 14.4557 85.0863 14.593 85.2003 14.7597L85.2006 14.7601L85.1626 14.8008L85.2014 14.7603C85.4313 15.0973 85.5396 15.5331 85.5023 15.9723C85.4651 16.4114 85.2854 16.818 85.0028 17.1028L77.898 24.2468C77.7338 24.4113 77.5411 24.5286 77.3349 24.5895C77.1288 24.6504 76.9146 24.6534 76.7091 24.5982L76.7075 24.5998Z" fill="white"/>
<g clip-path="url(#clip0_221_57)">
<path d="M125.082 118.437L49.6256 118.102L49.6246 117.82L125.133 118.155L125.082 118.437Z" fill="#3F3D56"/>
<path d="M46.9459 55.1114L32.3638 55.0466C32.1345 55.0454 31.9143 54.9546 31.7516 54.7943C31.5889 54.634 31.4969 54.4172 31.4959 54.1915L31.448 39.842C31.4475 39.6163 31.538 39.4003 31.6997 39.2415C31.8613 39.0826 32.0809 38.9938 32.3102 38.9946L46.8923 39.0593C47.1217 39.0606 47.3418 39.1514 47.5045 39.3117C47.6672 39.472 47.7592 39.6887 47.7602 39.9144L47.8081 54.264C47.8086 54.4897 47.7181 54.7056 47.5564 54.8645C47.3948 55.0233 47.1752 55.1121 46.9459 55.1114V55.1114ZM32.311 39.2378C32.1472 39.2373 31.9904 39.3007 31.8749 39.4142C31.7595 39.5276 31.6948 39.6819 31.6952 39.8431L31.7431 54.1926C31.7438 54.3538 31.8095 54.5087 31.9257 54.6232C32.0419 54.7377 32.1992 54.8025 32.363 54.8034L46.9451 54.8682C47.1089 54.8687 47.2657 54.8053 47.3812 54.6918C47.4966 54.5783 47.5613 54.4241 47.5609 54.2629L47.513 39.9133C47.5123 39.7521 47.4466 39.5973 47.3304 39.4828C47.2142 39.3683 47.0569 39.3035 46.8931 39.3026L32.311 39.2378Z" fill="#E6E6E6"/>
<path d="M33.4268 40.3372C33.263 40.3367 33.1062 40.4001 32.9907 40.5136C32.8753 40.627 32.8106 40.7813 32.811 40.9425L32.8516 53.1031C32.8523 53.2643 32.918 53.4192 33.0342 53.5337C33.1504 53.6482 33.3077 53.713 33.4715 53.7139L45.8292 53.7688C45.993 53.7693 46.1499 53.7059 46.2653 53.5924C46.3808 53.4789 46.4454 53.3247 46.4451 53.1635L46.4045 41.0028C46.4037 40.8416 46.3381 40.6868 46.2219 40.5723C46.1056 40.4578 45.9484 40.393 45.7846 40.3921L33.4268 40.3372Z" fill="#E6E6E6"/>
<path opacity="0.8" d="M33.8072 61.7413C34.9675 61.7464 35.905 60.825 35.9012 59.6833C35.8973 58.5416 34.9537 57.6118 33.7934 57.6067C32.6332 57.6015 31.6957 58.5229 31.6995 59.6646C31.7033 60.8064 32.647 61.7361 33.8072 61.7413Z" fill="#E6E6E6"/>
<path opacity="0.4" d="M45.6706 61.794C46.8309 61.7991 47.7684 60.8777 47.7645 59.736C47.7607 58.5942 46.8171 57.6645 45.6568 57.6593C44.4966 57.6542 43.5591 58.5756 43.5629 59.7173C43.5667 60.8591 44.5104 61.7888 45.6706 61.794Z" fill="#E6E6E6"/>
<path opacity="0.6" d="M39.7389 61.7676C40.8991 61.7728 41.8366 60.8514 41.8328 59.7096C41.829 58.5679 40.8853 57.6382 39.7251 57.633C38.5648 57.6279 37.6274 58.5492 37.6312 59.691C37.635 60.8327 38.5786 61.7625 39.7389 61.7676Z" fill="#E6E6E6"/>
<path d="M87.2228 74.0549C87.1546 73.9887 87.0655 73.9473 86.9705 73.9377C86.8755 73.928 86.7802 73.9508 86.7006 74.002L83.5189 76.0316C83.4666 76.065 83.4226 76.1094 83.3902 76.1618C83.3578 76.2141 83.3378 76.273 83.3316 76.3342C83.3253 76.3954 83.3331 76.4572 83.3543 76.5153C83.3754 76.5733 83.4095 76.6261 83.4539 76.6697L91.5894 84.6508C91.629 84.6895 91.6759 84.7203 91.7275 84.7411C91.779 84.762 91.8342 84.7726 91.8898 84.7723C91.9454 84.7721 92.0003 84.7609 92.0514 84.7395C92.1024 84.7181 92.1485 84.6869 92.187 84.6477L94.8354 81.953C94.9119 81.8748 94.9538 81.7697 94.9518 81.6607C94.9498 81.5517 94.9042 81.4475 94.8249 81.3708L87.2228 74.0549Z" fill="#3F3D56"/>
<path d="M84.1477 76.253L84.477 76.0474C84.4424 76.1082 84.4299 76.1789 84.4414 76.248C84.453 76.317 84.4879 76.3804 84.5405 76.4277C84.5931 76.475 84.6604 76.5036 84.7313 76.5087C84.8021 76.5137 84.8725 76.4951 84.9308 76.4557L87.0614 75.0205C87.1098 74.9879 87.1479 74.9425 87.1712 74.8895C87.1946 74.8365 87.2022 74.778 87.1934 74.7207C87.1845 74.6633 87.1595 74.6095 87.1212 74.5652C87.0828 74.5209 87.0327 74.4881 86.9765 74.4704L87.1462 74.3645C87.1682 74.3507 87.1944 74.3449 87.2204 74.3478C87.2464 74.3508 87.2706 74.3625 87.2891 74.3809L94.4959 81.3597C94.5066 81.3704 94.5151 81.3832 94.5208 81.3971C94.5265 81.4111 94.5294 81.426 94.5291 81.441C94.5289 81.456 94.5257 81.4708 94.5195 81.4845C94.5134 81.4982 94.5046 81.5105 94.4935 81.5207L91.8929 84.0107C91.8714 84.0307 91.8427 84.0415 91.813 84.041C91.7833 84.0405 91.7548 84.0286 91.7337 84.0078L84.129 76.4276C84.1168 76.4156 84.1075 76.4011 84.1018 76.3852C84.096 76.3693 84.0939 76.3523 84.0957 76.3356C84.0975 76.3188 84.1031 76.3027 84.1121 76.2884C84.1211 76.2741 84.1333 76.262 84.1477 76.253V76.253Z" fill="white"/>
<path d="M92.4503 79.8168L90.2535 81.8516L84.9948 76.7321L87.6493 75.0401L92.4503 79.8168Z" fill="#00B0FF"/>
<path d="M85.2028 77.9908C85.217 77.9767 85.2249 77.9577 85.2249 77.9378C85.2248 77.9179 85.2167 77.8988 85.2024 77.8846L84.7425 77.4315C84.7279 77.4178 84.7086 77.4101 84.6885 77.41C84.6684 77.41 84.6491 77.4175 84.6347 77.4311C84.6204 77.4451 84.6125 77.4641 84.6126 77.484C84.6126 77.5039 84.6207 77.523 84.635 77.5372L85.0949 77.9903C85.1095 78.004 85.1288 78.0117 85.1489 78.0118C85.169 78.0119 85.1883 78.0044 85.2028 77.9908V77.9908Z" fill="#E6E6E6"/>
<path d="M85.9771 78.6479L85.5172 78.1948C85.5029 78.1807 85.4835 78.1727 85.4632 78.1726C85.443 78.1725 85.4236 78.1803 85.4094 78.1943C85.3951 78.2083 85.3871 78.2274 85.3872 78.2473C85.3873 78.2672 85.3954 78.2863 85.4097 78.3005L85.8696 78.7536C85.8767 78.7606 85.8851 78.7662 85.8944 78.77C85.9037 78.7738 85.9136 78.7758 85.9236 78.7758C85.9336 78.7758 85.9436 78.774 85.9528 78.7702C85.962 78.7665 85.9704 78.761 85.9775 78.7541C85.9845 78.7471 85.9901 78.7389 85.9939 78.7298C85.9977 78.7207 85.9997 78.7109 85.9996 78.7011C85.9996 78.6912 85.9976 78.6815 85.9937 78.6723C85.9899 78.6632 85.9842 78.6549 85.9771 78.6479V78.6479Z" fill="#E6E6E6"/>
<path d="M92.4071 82.0781C92.6914 82.0794 92.9211 81.8536 92.9202 81.5738C92.9193 81.294 92.688 81.0662 92.4037 81.065C92.1194 81.0637 91.8897 81.2895 91.8906 81.5692C91.8915 81.849 92.1228 82.0768 92.4071 82.0781Z" fill="#00B0FF"/>
<path d="M107.329 82.6756L106.939 84.5773C106.882 84.8503 106.901 85.1336 106.993 85.3983C107.084 85.663 107.246 85.8996 107.46 86.0838C107.674 86.2681 107.934 86.3934 108.213 86.447C108.491 86.5006 108.779 86.4805 109.046 86.3889V86.3889C109.432 86.2562 109.751 85.982 109.937 85.6231C110.122 85.2641 110.159 84.8478 110.042 84.46L109.502 82.6853L114.284 68.8075L110.18 68.7893L107.329 82.6756Z" fill="#FFB8B8"/>
<path d="M102.891 54.9767C104.957 54.9859 106.627 53.3445 106.621 51.3107C106.614 49.2768 104.933 47.6205 102.866 47.6113C100.799 47.6022 99.1292 49.2435 99.1359 51.2774C99.1427 53.3113 100.824 54.9676 102.891 54.9767Z" fill="#FFB8B8"/>
<path d="M102.297 57.8252L107.244 57.2532C106.104 55.8471 105.67 54.3824 106.022 52.8523L101.557 53.3077L102.297 57.8252Z" fill="#FFB8B8"/>
<path d="M96.2082 78.3496L107.91 75.7881C110.406 73.8837 112.019 70.0912 113.26 65.5022C114.164 62.1578 112.508 58.5858 109.271 57.1908C109.194 57.1575 109.115 57.1254 109.036 57.0945L106.395 56.0614L102.05 56.3985L100.501 56.8078C100.173 56.8946 99.8775 57.0737 99.6517 57.3232C99.426 57.5728 99.2793 57.8821 99.2296 58.2136C97.1701 65.7314 95.8192 72.7066 96.2082 78.3496Z" fill="#00B0FF"/>
<path d="M109.584 71.0438L114.775 71.0668L113.051 61.0804L109.552 61.4212L109.584 71.0438Z" fill="#00B0FF"/>
<path d="M92.2235 114.208L95.3623 114.222L101.866 91.5016L104.481 114.262L108.159 114.279L109.486 77.8146C108.924 75.014 108.924 71.6792 109.212 68.0722C111.795 66.3003 110.832 62.0625 111.105 57.8102C111.107 57.7689 111.094 57.728 111.067 57.696L109.396 56.8353C109.373 56.8096 109.343 56.7916 109.31 56.7837C109.276 56.7758 109.241 56.7785 109.209 56.7914C109.178 56.8043 109.151 56.8267 109.133 56.8555C109.116 56.8843 109.107 56.9179 109.11 56.9516C109.078 59.9255 109.904 63.466 108.601 65.8124C107.16 61.0129 105.289 56.9801 101.671 56.0654C101.602 56.0485 101.531 56.0496 101.463 56.0685L100.791 56.2548C100.716 56.2757 100.649 56.3175 100.599 56.3753C100.548 56.4331 100.516 56.5042 100.506 56.58C100.496 56.6558 100.509 56.733 100.543 56.8021C100.577 56.8713 100.63 56.9293 100.697 56.9692C104.011 58.9947 106.16 62.3709 106.314 68.0594C103.753 71.6319 101.254 73.7422 96.7512 76.3312C96.5245 76.4621 96.3326 76.6438 96.1911 76.8618C96.0496 77.0797 95.9625 77.3277 95.9367 77.5858L92.2235 114.208Z" fill="#2F2E41"/>
<path d="M103.375 54.6418L106.027 54.1591L107.597 51.5121C107.977 50.8698 108.141 50.1235 108.063 49.3807C107.985 48.6378 107.67 47.9365 107.163 47.3777V47.3777C106.768 46.9421 106.27 46.6086 105.715 46.4067C105.159 46.2049 104.562 46.1409 103.977 46.2205L100.54 46.6888C100.243 46.7291 99.9583 46.8269 99.7013 46.9764C99.4443 47.1259 99.2203 47.3242 99.0421 47.5598C98.864 47.7955 98.7353 48.0639 98.6634 48.3495C98.5916 48.6352 98.5779 48.9324 98.6234 49.2242L100.941 49.6223L103.375 54.6418Z" fill="#2F2E41"/>
<path d="M88.562 118.171L94.0905 118.196C94.3515 118.197 94.6093 118.143 94.8463 118.037C95.0833 117.931 95.2941 117.776 95.4641 117.583C95.6342 117.389 95.7597 117.162 95.832 116.916C95.9044 116.669 95.9219 116.41 95.8834 116.156L95.5285 113.813L93.0186 113.618L88.0398 115.892C87.8132 115.995 87.6252 116.165 87.5016 116.379C87.378 116.592 87.3248 116.839 87.3494 117.084C87.379 117.38 87.5197 117.656 87.7439 117.857C87.9681 118.058 88.2598 118.17 88.562 118.171V118.171Z" fill="#2F2E41"/>
<path d="M101.117 118.227L106.646 118.252C106.907 118.253 107.164 118.199 107.401 118.093C107.638 117.987 107.849 117.832 108.019 117.639C108.189 117.445 108.315 117.218 108.387 116.971C108.459 116.725 108.477 116.466 108.438 116.212L108.084 113.868L105.574 113.674L100.595 115.947C100.368 116.051 100.18 116.221 100.057 116.434C99.933 116.648 99.8799 116.894 99.9045 117.14V117.14C99.9341 117.436 100.075 117.712 100.299 117.913C100.523 118.114 100.815 118.226 101.117 118.227V118.227Z" fill="#2F2E41"/>
<path d="M90.4762 78.2289L88.0872 79.0364C87.8007 79.1332 87.5467 79.3043 87.3516 79.5318C87.1566 79.7592 87.0278 80.0346 86.9787 80.329C86.9296 80.6234 86.962 80.9261 87.0726 81.2051C87.1832 81.4842 87.3678 81.7294 87.6072 81.915V81.915C87.8845 82.1301 88.2223 82.2553 88.5737 82.2731C88.9251 82.291 89.2726 82.2006 89.5678 82.0146L91.7431 80.6436L99.1619 73.2311L100.286 64.4848C100.43 63.3709 100.284 62.2371 99.8627 61.1892C99.4416 60.1412 98.7588 59.2129 97.8778 58.4909V58.4909L95.4948 71.8111L90.4762 78.2289Z" fill="#FFB9B9"/>
<path d="M95.5741 69.1996L100.886 69.2232L100.723 56.749C99.4634 57.0537 98.3377 57.7459 97.5094 58.7254C96.6811 59.705 96.1932 60.921 96.1163 62.1974L95.5741 69.1996Z" fill="#00B0FF"/>
<path d="M101.79 52.5654C102.153 52.567 102.446 52.2208 102.445 51.7922C102.443 51.3636 102.148 51.0149 101.785 51.0133C101.422 51.0116 101.129 51.3578 101.131 51.7864C101.132 52.215 101.427 52.5637 101.79 52.5654Z" fill="#FFB8B8"/>
</g>
<defs>
<clipPath id="clip0_221_57">
<rect width="121.152" height="85.2231" fill="white" transform="matrix(1.00013 0.00444105 0.0033376 1.00012 3.6814 32.6656)"/>
</clipPath>
</defs>
</svg>
